<svg width="41" height="40" viewBox="0 0 41 40" fill="none" xmlns="http://www.w3.org/2000/svg">
<path d="M21.2789 0L19.6658 0C8.8047 0 0 8.80803 0 19.6733L0 40H20.6257C31.8476 40 40.9447 30.8994 40.9447 19.6733C40.9447 8.80803 32.14 0 21.2789 0Z" fill="white" style="fill:white;fill-opacity:1;"/>
<path d="M20.7263 7.41522C23.6441 7.41522 25.9671 8.02263 27.695 9.23651C29.4225 10.4511 30.2868 12.3434 30.2868 14.9123V15.0519C30.2868 16.8036 29.8022 18.2289 28.8337 19.3264C27.8647 20.4244 26.656 21.1717 25.2087 21.5685L29.7615 28.3996H31.8279V32.4631H26.0847L19.781 22.5842H17.2947V28.3996H19.781V32.4631H9.10032V28.3996H11.6218V11.4787H9.10032V7.41522H20.7263ZM17.2947 18.7658H20.447C21.8476 18.7657 22.9158 18.4561 23.6511 17.8371C24.3863 17.2186 24.7536 16.29 24.7536 15.0519V14.9123C24.7536 13.7212 24.3743 12.8509 23.6159 12.3019C22.857 11.7535 21.8118 11.4787 20.4812 11.4787H17.2947V18.7658Z" fill="#FF7802" style="fill:#FF7802;fill:color(display-p3 1.0000 0.4702 0.0066);fill-opacity:1;"/>
</svg>
