<svg width="21" height="26" viewBox="0 0 21 26" fill="none" xmlns="http://www.w3.org/2000/svg">
<path d="M17.3072 13.5446C17.3326 11.5785 18.3885 9.7181 20.0635 8.68829C19.0068 7.1791 17.2368 6.22224 15.3954 6.16462C13.4313 5.95847 11.5272 7.33989 10.5264 7.33989C9.50614 7.33989 7.96516 6.18509 6.30579 6.21923C4.14286 6.28911 2.12648 7.51883 1.07417 9.4098C-1.18787 13.3262 0.499407 19.0819 2.66626 22.2476C3.75038 23.7978 5.0174 25.5294 6.67528 25.468C8.29762 25.4007 8.90353 24.4335 10.8618 24.4335C12.8019 24.4335 13.3704 25.468 15.0619 25.4289C16.8028 25.4007 17.8996 23.8719 18.9457 22.307C19.7246 21.2025 20.324 19.9817 20.7216 18.69C18.6758 17.8247 17.3096 15.7659 17.3072 13.5446Z" fill="white" style="fill:white;fill-opacity:1;"/>
<path d="M14.1122 4.0827C15.0614 2.94325 15.529 1.47867 15.4158 0C13.9657 0.152309 12.6261 0.845378 11.6641 1.94111C10.7234 3.0117 10.2339 4.45051 10.3264 5.87266C11.7771 5.8876 13.2032 5.21332 14.1122 4.0827Z" fill="white" style="fill:white;fill-opacity:1;"/>
</svg>
