<svg width="44" height="44" viewBox="0 0 44 44" fill="none" xmlns="http://www.w3.org/2000/svg">
<rect width="44" height="44" rx="22" fill="white" fill-opacity="0.1" style="fill:white;fill-opacity:0.1;"/>
<path d="M22 25C24.0711 25 25.75 23.3211 25.75 21.25C25.75 19.1789 24.0711 17.5 22 17.5C19.9289 17.5 18.25 19.1789 18.25 21.25C18.25 23.3211 19.9289 25 22 25Z" stroke="white" style="stroke:white;stroke-opacity:1;" stroke-width="1.5" stroke-linecap="round" stroke-linejoin="round"/>
<path d="M15.9812 28.6909C16.5455 27.5794 17.4066 26.6459 18.4689 25.9938C19.5313 25.3418 20.7535 24.9966 22 24.9966C23.2465 24.9966 24.4687 25.3418 25.5311 25.9938C26.5934 26.6459 27.4545 27.5794 28.0187 28.6909" stroke="white" style="stroke:white;stroke-opacity:1;" stroke-width="1.5" stroke-linecap="round" stroke-linejoin="round"/>
<path d="M30.8753 20.5C31.1917 22.38 30.9025 24.312 30.0493 26.0169C29.1961 27.7217 27.8232 29.1114 26.1287 29.9851C24.4342 30.8588 22.5059 31.1714 20.6222 30.8777C18.7386 30.584 16.9969 29.6992 15.6489 28.3512C14.3008 27.0031 13.4161 25.2615 13.1224 23.3778C12.8287 21.4941 13.1413 19.5658 14.015 17.8713C14.8887 16.1769 16.2783 14.8039 17.9832 13.9508C19.6881 13.0976 21.62 12.8083 23.5 13.1247" stroke="white" style="stroke:white;stroke-opacity:1;" stroke-width="1.5" stroke-linecap="round" stroke-linejoin="round"/>
<path d="M27.25 15.25L28.75 16.75L31.75 13.75" stroke="white" style="stroke:white;stroke-opacity:1;" stroke-width="1.5" stroke-linecap="round" stroke-linejoin="round"/>
</svg>
