<svg width="44" height="44" viewBox="0 0 44 44" fill="none" xmlns="http://www.w3.org/2000/svg">
<rect width="44" height="44" rx="22" fill="white" fill-opacity="0.1" style="fill:white;fill-opacity:0.1;"/>
<path d="M30.25 17.5H13.75C13.3358 17.5 13 17.8358 13 18.25V21.25C13 21.6642 13.3358 22 13.75 22H30.25C30.6642 22 31 21.6642 31 21.25V18.25C31 17.8358 30.6642 17.5 30.25 17.5Z" stroke="white" style="stroke:white;stroke-opacity:1;" stroke-width="1.5" stroke-linecap="round" stroke-linejoin="round"/>
<path d="M29.5 22V28.75C29.5 28.9489 29.421 29.1397 29.2803 29.2803C29.1397 29.421 28.9489 29.5 28.75 29.5H15.25C15.0511 29.5 14.8603 29.421 14.7197 29.2803C14.579 29.1397 14.5 28.9489 14.5 28.75V22" stroke="white" style="stroke:white;stroke-opacity:1;" stroke-width="1.5" stroke-linecap="round" stroke-linejoin="round"/>
<path d="M22 17.5V29.5" stroke="white" style="stroke:white;stroke-opacity:1;" stroke-width="1.5" stroke-linecap="round" stroke-linejoin="round"/>
<path d="M26.5741 12.9259C27.4497 13.8016 27.5012 15.2753 26.5741 16.0966C24.9887 17.5 22 17.5 22 17.5C22 17.5 22 14.5113 23.4062 12.9259C24.2247 11.9988 25.6984 12.0503 26.5741 12.9259Z" stroke="white" style="stroke:white;stroke-opacity:1;" stroke-width="1.5" stroke-linecap="round" stroke-linejoin="round"/>
<path d="M17.4259 12.9259C16.5503 13.8016 16.4987 15.2753 17.4259 16.0966C19.0112 17.5 22 17.5 22 17.5C22 17.5 22 14.5113 20.5938 12.9259C19.7753 11.9988 18.3016 12.0503 17.4259 12.9259Z" stroke="white" style="stroke:white;stroke-opacity:1;" stroke-width="1.5" stroke-linecap="round" stroke-linejoin="round"/>
</svg>
