<svg width="48" height="48" viewBox="0 0 48 48" fill="none" xmlns="http://www.w3.org/2000/svg">
<path d="M37.5 28.5L30 36L18 33L7.5 25.5" stroke="#FF7802" style="stroke:#FF7802;stroke:color(display-p3 1.0000 0.4702 0.0066);stroke-opacity:1;" stroke-width="3" stroke-linecap="round" stroke-linejoin="round"/>
<path d="M13.6274 13.2431L23.9999 10.5L34.3724 13.2431" stroke="#FF7802" style="stroke:#FF7802;stroke:color(display-p3 1.0000 0.4702 0.0066);stroke-opacity:1;" stroke-width="3" stroke-linecap="round" stroke-linejoin="round"/>
<path d="M6.44439 11.3288L1.65939 20.9025C1.48156 21.2581 1.45217 21.6698 1.57769 22.047C1.7032 22.4243 1.97335 22.7362 2.32877 22.9144L7.50002 25.5L13.6275 13.2432L8.45814 10.6594C8.28198 10.5711 8.09013 10.5183 7.89357 10.5041C7.69701 10.49 7.49958 10.5147 7.31256 10.5768C7.12555 10.639 6.95262 10.7374 6.80366 10.8664C6.65469 10.9954 6.53261 11.1526 6.44439 11.3288Z" stroke="#FF7802" style="stroke:#FF7802;stroke:color(display-p3 1.0000 0.4702 0.0066);stroke-opacity:1;" stroke-width="3" stroke-linecap="round" stroke-linejoin="round"/>
<path d="M40.5001 25.5L45.6713 22.9144C46.0267 22.7362 46.2969 22.4243 46.4224 22.047C46.5479 21.6698 46.5185 21.2581 46.3407 20.9025L41.5557 11.3288C41.4675 11.1526 41.3454 10.9954 41.1964 10.8664C41.0475 10.7374 40.8745 10.639 40.6875 10.5768C40.5005 10.5147 40.3031 10.49 40.1065 10.5041C39.9099 10.5183 39.7181 10.5711 39.5419 10.6594L34.3726 13.2432L40.5001 25.5Z" stroke="#FF7802" style="stroke:#FF7802;stroke:color(display-p3 1.0000 0.4702 0.0066);stroke-opacity:1;" stroke-width="3" stroke-linecap="round" stroke-linejoin="round"/>
<path d="M34.4999 13.5H26.9999L18.4386 21.8044C18.2795 21.9634 18.1582 22.1563 18.0836 22.3686C18.0091 22.5809 17.9833 22.8073 18.0082 23.031C18.033 23.2546 18.1079 23.4698 18.2272 23.6606C18.3465 23.8514 18.5072 24.0129 18.6974 24.1331C21.9805 26.2313 26.4374 26.0869 29.9999 22.5L37.4999 28.5L40.4999 25.5" stroke="#FF7802" style="stroke:#FF7802;stroke:color(display-p3 1.0000 0.4702 0.0066);stroke-opacity:1;" stroke-width="3" stroke-linecap="round" stroke-linejoin="round"/>
<path d="M23.2612 40.5L15.4387 38.5444L10.5 35.0156" stroke="#FF7802" style="stroke:#FF7802;stroke:color(display-p3 1.0000 0.4702 0.0066);stroke-opacity:1;" stroke-width="3" stroke-linecap="round" stroke-linejoin="round"/>
</svg>
