<svg width="38" height="38" viewBox="0 0 38 38" fill="none" xmlns="http://www.w3.org/2000/svg">
<rect width="38" height="38" rx="19" fill="white" fill-opacity="0.1" style="fill:white;fill-opacity:0.1;"/>
<path d="M19.0039 14.5078C16.5195 14.5078 14.5156 16.5117 14.5156 18.9961C14.5156 21.4805 16.5195 23.4844 19.0039 23.4844C21.4883 23.4844 23.4922 21.4805 23.4922 18.9961C23.4922 16.5117 21.4883 14.5078 19.0039 14.5078ZM19.0039 21.9141C17.3984 21.9141 16.0859 20.6055 16.0859 18.9961C16.0859 17.3867 17.3945 16.0781 19.0039 16.0781C20.6133 16.0781 21.9219 17.3867 21.9219 18.9961C21.9219 20.6055 20.6094 21.9141 19.0039 21.9141ZM24.7227 14.3242C24.7227 14.9062 24.2539 15.3711 23.6758 15.3711C23.0938 15.3711 22.6289 14.9023 22.6289 14.3242C22.6289 13.7461 23.0977 13.2773 23.6758 13.2773C24.2539 13.2773 24.7227 13.7461 24.7227 14.3242ZM27.6953 15.3867C27.6289 13.9844 27.3086 12.7422 26.2812 11.7187C25.2578 10.6953 24.0156 10.375 22.6133 10.3047C21.168 10.2227 16.8359 10.2227 15.3906 10.3047C13.9922 10.3711 12.75 10.6914 11.7227 11.7148C10.6953 12.7383 10.3789 13.9805 10.3086 15.3828C10.2266 16.8281 10.2266 21.1602 10.3086 22.6055C10.375 24.0078 10.6953 25.25 11.7227 26.2734C12.75 27.2969 13.9883 27.6172 15.3906 27.6875C16.8359 27.7695 21.168 27.7695 22.6133 27.6875C24.0156 27.6211 25.2578 27.3008 26.2812 26.2734C27.3047 25.25 27.625 24.0078 27.6953 22.6055C27.7773 21.1602 27.7773 16.832 27.6953 15.3867ZM25.8281 24.1562C25.5234 24.9219 24.9336 25.5117 24.1641 25.8203C23.0117 26.2773 20.2773 26.1719 19.0039 26.1719C17.7305 26.1719 14.9922 26.2734 13.8438 25.8203C13.0781 25.5156 12.4883 24.9258 12.1797 24.1562C11.7227 23.0039 11.8281 20.2695 11.8281 18.9961C11.8281 17.7227 11.7266 14.9844 12.1797 13.8359C12.4844 13.0703 13.0742 12.4805 13.8438 12.1719C14.9961 11.7148 17.7305 11.8203 19.0039 11.8203C20.2773 11.8203 23.0156 11.7187 24.1641 12.1719C24.9297 12.4766 25.5195 13.0664 25.8281 13.8359C26.2852 14.9883 26.1797 17.7227 26.1797 18.9961C26.1797 20.2695 26.2852 23.0078 25.8281 24.1562Z" fill="white" style="fill:white;fill-opacity:1;"/>
</svg>
