<svg width="48" height="48" viewBox="0 0 48 48" fill="none" xmlns="http://www.w3.org/2000/svg">
<path d="M18 40.5H9C8.60218 40.5 8.22064 40.342 7.93934 40.0607C7.65804 39.7794 7.5 39.3979 7.5 39V30.6207C7.50018 30.2234 7.65798 29.8424 7.93875 29.5613L31.0613 6.43878C31.3425 6.15769 31.7239 5.99979 32.1216 5.99979C32.5192 5.99979 32.9006 6.15769 33.1819 6.43878L41.5613 14.8125C41.8423 15.0938 42.0002 15.4752 42.0002 15.8728C42.0002 16.2705 41.8423 16.6519 41.5613 16.9332L18 40.5Z" stroke="#FF7802" style="stroke:#FF7802;stroke:color(display-p3 1.0000 0.4702 0.0066);stroke-opacity:1;" stroke-width="3" stroke-linecap="round" stroke-linejoin="round"/>
<path d="M40.5 40.5H18" stroke="#FF7802" style="stroke:#FF7802;stroke:color(display-p3 1.0000 0.4702 0.0066);stroke-opacity:1;" stroke-width="3" stroke-linecap="round" stroke-linejoin="round"/>
<path d="M25.5 12L36 22.5" stroke="#FF7802" style="stroke:#FF7802;stroke:color(display-p3 1.0000 0.4702 0.0066);stroke-opacity:1;" stroke-width="3" stroke-linecap="round" stroke-linejoin="round"/>
</svg>
