<svg width="40" height="40" viewBox="0 0 40 40" fill="none" xmlns="http://www.w3.org/2000/svg">
<path d="M8.50937 31.4906C7.07187 30.0531 8.025 27.0328 7.29375 25.2641C6.53438 23.4375 3.75 21.9531 3.75 20C3.75 18.0469 6.53438 16.5625 7.29375 14.7359C8.025 12.9687 7.07187 9.94687 8.50937 8.50937C9.94687 7.07187 12.9687 8.025 14.7359 7.29375C16.5703 6.53438 18.0469 3.75 20 3.75C21.9531 3.75 23.4375 6.53438 25.2641 7.29375C27.0328 8.025 30.0531 7.07187 31.4906 8.50937C32.9281 9.94687 31.975 12.9672 32.7063 14.7359C33.4656 16.5703 36.25 18.0469 36.25 20C36.25 21.9531 33.4656 23.4375 32.7063 25.2641C31.975 27.0328 32.9281 30.0531 31.4906 31.4906C30.0531 32.9281 27.0328 31.975 25.2641 32.7063C23.4375 33.4656 21.9531 36.25 20 36.25C18.0469 36.25 16.5625 33.4656 14.7359 32.7063C12.9687 31.975 9.94687 32.9281 8.50937 31.4906Z" stroke="#FF7802" style="stroke:#FF7802;stroke:color(display-p3 1.0000 0.4702 0.0066);stroke-opacity:1;" stroke-width="2.5" stroke-linecap="round" stroke-linejoin="round"/>
<path d="M13.75 21.25L17.5 25L26.25 16.25" stroke="#FF7802" style="stroke:#FF7802;stroke:color(display-p3 1.0000 0.4702 0.0066);stroke-opacity:1;" stroke-width="2.5" stroke-linecap="round" stroke-linejoin="round"/>
</svg>
