<svg width="64" height="64" viewBox="0 0 64 64" fill="none" xmlns="http://www.w3.org/2000/svg">
<rect width="64" height="64" rx="32" fill="white" fill-opacity="0.1" style="fill:white;fill-opacity:0.1;"/>
<path d="M32 39.6362L38.84 43.8424C39.0174 43.9502 39.2229 44.0029 39.4303 43.9939C39.6377 43.9849 39.8378 43.9147 40.0053 43.792C40.1728 43.6693 40.3001 43.4997 40.3713 43.3047C40.4424 43.1097 40.4542 42.8979 40.405 42.6962L38.545 34.8474L44.6325 29.5974C44.7877 29.4612 44.8996 29.2824 44.9544 29.0833C45.0091 28.8841 45.0044 28.6733 44.9407 28.4768C44.877 28.2803 44.7572 28.1067 44.596 27.9776C44.4349 27.8484 44.2394 27.7693 44.0337 27.7499L36.045 27.0999L32.9675 19.6499C32.889 19.4577 32.7551 19.2933 32.5828 19.1775C32.4105 19.0617 32.2076 18.9999 32 18.9999C31.7924 18.9999 31.5895 19.0617 31.4172 19.1775C31.2449 19.2933 31.1109 19.4577 31.0325 19.6499L27.955 27.0999L19.9662 27.7499C19.7592 27.7681 19.5621 27.8469 19.3996 27.9765C19.237 28.106 19.1163 28.2806 19.0524 28.4784C18.9885 28.6761 18.9843 28.8884 19.0404 29.0885C19.0964 29.2886 19.2102 29.4678 19.3675 29.6037L25.455 34.8537L23.595 42.6962C23.5458 42.8979 23.5575 43.1097 23.6287 43.3047C23.6998 43.4997 23.8272 43.6693 23.9947 43.792C24.1622 43.9147 24.3623 43.9849 24.5697 43.9939C24.7771 44.0029 24.9825 43.9502 25.16 43.8424L32 39.6362Z" stroke="white" style="stroke:white;stroke-opacity:1;" stroke-width="2" stroke-linecap="round" stroke-linejoin="round"/>
</svg>
