<svg width="40" height="40" viewBox="0 0 40 40" fill="none" xmlns="http://www.w3.org/2000/svg">
<path d="M20 20L35 5" stroke="#FF7802" style="stroke:#FF7802;stroke:color(display-p3 1.0000 0.4702 0.0066);stroke-opacity:1;" stroke-width="2.5" stroke-linecap="round" stroke-linejoin="round"/>
<path d="M30.6063 9.39373C27.9494 6.74314 24.3945 5.18627 20.6447 5.03113C16.895 4.87598 13.2236 6.13387 10.3569 8.55592C7.49014 10.978 5.63687 14.3878 5.16371 18.1108C4.69056 21.8338 5.63197 25.5988 7.80171 28.6609C9.97146 31.7231 13.2115 33.8593 16.8808 34.6471C20.5502 35.4348 24.3815 34.8167 27.6169 32.9149C30.8523 31.0132 33.2562 27.9664 34.3528 24.3772C35.4494 20.7881 35.1591 16.9181 33.5391 13.5328" stroke="#FF7802" style="stroke:#FF7802;stroke:color(display-p3 1.0000 0.4702 0.0066);stroke-opacity:1;" stroke-width="2.5" stroke-linecap="round" stroke-linejoin="round"/>
<path d="M25.3031 14.6969C24.0625 13.4577 22.4268 12.6925 20.6805 12.5341C18.9341 12.3757 17.1875 12.8342 15.7441 13.83C14.3008 14.8257 13.2519 16.2957 12.7799 17.9845C12.3079 19.6732 12.4425 21.474 13.1604 23.0739C13.8782 24.6737 15.134 25.9714 16.7093 26.7415C18.2847 27.5116 20.0801 27.7053 21.7835 27.289C23.4869 26.8728 24.9905 25.8728 26.0332 24.463C27.0758 23.0531 27.5915 21.3225 27.4906 19.5719" stroke="#FF7802" style="stroke:#FF7802;stroke:color(display-p3 1.0000 0.4702 0.0066);stroke-opacity:1;" stroke-width="2.5" stroke-linecap="round" stroke-linejoin="round"/>
</svg>
