<svg width="38" height="38" viewBox="0 0 38 38" fill="none" xmlns="http://www.w3.org/2000/svg">
<rect width="38" height="38" rx="19" fill="white" fill-opacity="0.1" style="fill:white;fill-opacity:0.1;"/>
<path d="M26.5 14.7812C25.4644 14.78 24.4715 14.3681 23.7392 13.6358C23.0069 12.9035 22.595 11.9106 22.5938 10.875C22.5938 10.7507 22.5444 10.6315 22.4565 10.5435C22.3685 10.4556 22.2493 10.4062 22.125 10.4062H19C18.8757 10.4062 18.7565 10.4556 18.6685 10.5435C18.5806 10.6315 18.5312 10.7507 18.5312 10.875V21.1875C18.5311 21.495 18.4484 21.7969 18.2918 22.0616C18.1352 22.3263 17.9105 22.5441 17.641 22.6923C17.3716 22.8406 17.0673 22.9138 16.7599 22.9044C16.4525 22.895 16.1533 22.8033 15.8934 22.6388C15.6335 22.4744 15.4225 22.2432 15.2824 21.9694C15.1424 21.6956 15.0783 21.3893 15.0969 21.0823C15.1155 20.7754 15.2162 20.479 15.3884 20.2242C15.5605 19.9694 15.7979 19.7654 16.0758 19.6336C16.1559 19.5956 16.2237 19.5356 16.2711 19.4607C16.3185 19.3857 16.3437 19.2989 16.3438 19.2102V15.875C16.3437 15.8069 16.3288 15.7396 16.3 15.6778C16.2713 15.616 16.2295 15.5613 16.1774 15.5173C16.1253 15.4734 16.0643 15.4413 15.9986 15.4233C15.9329 15.4054 15.8641 15.4019 15.7969 15.4133C13.0781 15.8969 11.0312 18.3789 11.0312 21.1875C11.0312 22.7208 11.6403 24.1913 12.7245 25.2755C13.8087 26.3597 15.2792 26.9688 16.8125 26.9688C18.3458 26.9688 19.8163 26.3597 20.9005 25.2755C21.9847 24.1913 22.5938 22.7208 22.5938 21.1875V17.8227C23.7856 18.4951 25.1315 18.8469 26.5 18.8438C26.6243 18.8438 26.7435 18.7944 26.8315 18.7065C26.9194 18.6185 26.9688 18.4993 26.9688 18.375V15.25C26.9688 15.1257 26.9194 15.0065 26.8315 14.9185C26.7435 14.8306 26.6243 14.7812 26.5 14.7812ZM26.0312 17.8906C24.7216 17.807 23.4623 17.355 22.3984 16.5867C22.3283 16.5364 22.2456 16.5063 22.1595 16.5C22.0734 16.4936 21.9872 16.5112 21.9105 16.5507C21.8337 16.5902 21.7693 16.6501 21.7245 16.7239C21.6796 16.7977 21.656 16.8824 21.6562 16.9688V21.1875C21.6562 22.4721 21.1459 23.7042 20.2375 24.6125C19.3292 25.5209 18.0971 26.0312 16.8125 26.0312C15.5279 26.0312 14.2958 25.5209 13.3875 24.6125C12.4791 23.7042 11.9688 22.4721 11.9688 21.1875C11.9688 19.0219 13.4117 17.0875 15.4062 16.4703V18.9336C15.014 19.1784 14.6924 19.5213 14.4733 19.9285C14.2542 20.3357 14.1452 20.7931 14.1571 21.2553C14.169 21.7175 14.3013 22.1687 14.541 22.5641C14.7807 22.9595 15.1195 23.2855 15.5238 23.5098C15.9282 23.7341 16.384 23.849 16.8464 23.8431C17.3088 23.8372 17.7616 23.7107 18.16 23.4761C18.5585 23.2416 18.8888 22.907 19.1184 22.5056C19.3479 22.1042 19.4687 21.6499 19.4688 21.1875V11.3438H21.6789C21.7888 12.4607 22.2827 13.505 23.0763 14.2987C23.87 15.0923 24.9143 15.5862 26.0312 15.6961V17.8906Z" fill="white" style="fill:white;fill-opacity:1;"/>
</svg>
