<svg width="24" height="24" viewBox="0 0 24 24" fill="none" xmlns="http://www.w3.org/2000/svg">
<path d="M12 15C14.0711 15 15.75 13.3211 15.75 11.25C15.75 9.17893 14.0711 7.5 12 7.5C9.92893 7.5 8.25 9.17893 8.25 11.25C8.25 13.3211 9.92893 15 12 15Z" stroke="white" style="stroke:white;stroke-opacity:1;" stroke-width="1.5" stroke-linecap="round" stroke-linejoin="round"/>
<path d="M5.98125 18.6909C6.54554 17.5794 7.40658 16.6459 8.46894 15.9938C9.5313 15.3418 10.7535 14.9966 12 14.9966C13.2465 14.9966 14.4687 15.3418 15.5311 15.9938C16.5934 16.6459 17.4545 17.5794 18.0187 18.6909" stroke="white" style="stroke:white;stroke-opacity:1;" stroke-width="1.5" stroke-linecap="round" stroke-linejoin="round"/>
<path d="M20.8753 10.5C21.1917 12.38 20.9025 14.312 20.0493 16.0169C19.1961 17.7217 17.8232 19.1114 16.1287 19.9851C14.4342 20.8588 12.5059 21.1714 10.6222 20.8777C8.73856 20.584 6.99694 19.6992 5.64887 18.3512C4.30081 17.0031 3.41606 15.2615 3.12237 13.3778C2.82869 11.4941 3.14126 9.56581 4.01497 7.87135C4.88867 6.17689 6.27829 4.80395 7.98318 3.95076C9.68807 3.09758 11.62 2.80832 13.5 3.12473" stroke="white" style="stroke:white;stroke-opacity:1;" stroke-width="1.5" stroke-linecap="round" stroke-linejoin="round"/>
<path d="M17.25 5.25L18.75 6.75L21.75 3.75" stroke="white" style="stroke:white;stroke-opacity:1;" stroke-width="1.5" stroke-linecap="round" stroke-linejoin="round"/>
</svg>
