<svg width="40" height="40" viewBox="0 0 40 40" fill="none" xmlns="http://www.w3.org/2000/svg">
<path d="M13.125 25C17.6123 25 21.25 21.3623 21.25 16.875C21.25 12.3877 17.6123 8.75 13.125 8.75C8.63769 8.75 5 12.3877 5 16.875C5 21.3623 8.63769 25 13.125 25Z" stroke="#FF7802" style="stroke:#FF7802;stroke:color(display-p3 1.0000 0.4702 0.0066);stroke-opacity:1;" stroke-width="2.5" stroke-linecap="round" stroke-linejoin="round"/>
<path d="M1.59843 31.2501C2.84701 29.3304 4.5553 27.7529 6.56822 26.6608C8.58114 25.5688 10.8349 24.9968 13.125 24.9968C15.4151 24.9968 17.6689 25.5688 19.6818 26.6608C21.6947 27.7529 23.403 29.3304 24.6516 31.2501" stroke="#FF7802" style="stroke:#FF7802;stroke:color(display-p3 1.0000 0.4702 0.0066);stroke-opacity:1;" stroke-width="2.5" stroke-linecap="round" stroke-linejoin="round"/>
<path d="M26.875 25C29.1649 24.9987 31.4189 25.5697 33.432 26.6612C35.445 27.7528 37.1533 29.3302 38.4016 31.25" stroke="#FF7802" style="stroke:#FF7802;stroke:color(display-p3 1.0000 0.4702 0.0066);stroke-opacity:1;" stroke-width="2.5" stroke-linecap="round" stroke-linejoin="round"/>
<path d="M23.8578 9.32812C24.9692 8.88484 26.1649 8.6925 27.3592 8.76488C28.5536 8.83725 29.7173 9.17253 30.7671 9.74677C31.8168 10.321 32.7268 11.12 33.432 12.0867C34.1372 13.0534 34.6201 14.164 34.8463 15.339C35.0725 16.514 35.0364 17.7244 34.7406 18.8838C34.4447 20.0433 33.8965 21.123 33.1349 22.046C32.3734 22.9689 31.4174 23.7123 30.3353 24.223C29.2531 24.7336 28.0716 24.9989 26.875 25" stroke="#FF7802" style="stroke:#FF7802;stroke:color(display-p3 1.0000 0.4702 0.0066);stroke-opacity:1;" stroke-width="2.5" stroke-linecap="round" stroke-linejoin="round"/>
</svg>
